<mxfile host="Electron" modified="2024-02-21T02:02:30.619Z" agent="Mozilla/5.0 (X11; Linux x86_64) AppleWebKit/537.36 (KHTML, like Gecko) draw.io/23.0.2 Chrome/120.0.6099.109 Electron/28.1.0 Safari/537.36" etag="5Vbaljl6GWmP4czcL6t7" version="23.0.2" type="device">
  <diagram name="Page-1" id="HmDZa78vceffgzaVGEdY">
    <mxGraphModel dx="1302" dy="898" grid="1" gridSize="10" guides="1" tooltips="1" connect="1" arrows="1" fold="1" page="1" pageScale="1" pageWidth="850" pageHeight="1100" math="0" shadow="0">
      <root>
        <mxCell id="0" />
        <mxCell id="1" parent="0" />
        <mxCell id="e6qoRinw3GRL_mTCKhxs-19" value="" style="rounded=0;whiteSpace=wrap;html=1;direction=south;strokeWidth=2;strokeColor=#FF0000;" vertex="1" parent="1">
          <mxGeometry x="220" y="450" width="80" height="80" as="geometry" />
        </mxCell>
        <mxCell id="e6qoRinw3GRL_mTCKhxs-24" value="" style="endArrow=none;html=1;rounded=0;entryX=0.5;entryY=0;entryDx=0;entryDy=0;exitX=0.5;exitY=0;exitDx=0;exitDy=0;strokeWidth=2;strokeColor=#FF0000;" edge="1" parent="1" source="e6qoRinw3GRL_mTCKhxs-19">
          <mxGeometry width="50" height="50" relative="1" as="geometry">
            <mxPoint x="310" y="490" as="sourcePoint" />
            <mxPoint x="260" y="490" as="targetPoint" />
          </mxGeometry>
        </mxCell>
        <mxCell id="e6qoRinw3GRL_mTCKhxs-26" value="" style="endArrow=none;html=1;rounded=0;exitX=0.75;exitY=1;exitDx=0;exitDy=0;entryX=0.25;entryY=1;entryDx=0;entryDy=0;strokeWidth=2;strokeColor=#FF0000;" edge="1" parent="1" source="e6qoRinw3GRL_mTCKhxs-19" target="e6qoRinw3GRL_mTCKhxs-19">
          <mxGeometry width="50" height="50" relative="1" as="geometry">
            <mxPoint x="310" y="490" as="sourcePoint" />
            <mxPoint x="260" y="540" as="targetPoint" />
            <Array as="points">
              <mxPoint x="260" y="510" />
              <mxPoint x="260" y="470" />
            </Array>
          </mxGeometry>
        </mxCell>
        <mxCell id="e6qoRinw3GRL_mTCKhxs-31" value="" style="rounded=0;whiteSpace=wrap;html=1;strokeWidth=2;strokeColor=#FF0000;" vertex="1" parent="1">
          <mxGeometry x="550" y="390" width="80" height="80" as="geometry" />
        </mxCell>
        <mxCell id="e6qoRinw3GRL_mTCKhxs-32" value="" style="endArrow=none;html=1;rounded=0;entryX=0.5;entryY=0;entryDx=0;entryDy=0;strokeWidth=2;strokeColor=#FF0000;" edge="1" target="e6qoRinw3GRL_mTCKhxs-31" parent="1">
          <mxGeometry width="50" height="50" relative="1" as="geometry">
            <mxPoint x="590" y="430" as="sourcePoint" />
            <mxPoint x="640" y="430" as="targetPoint" />
          </mxGeometry>
        </mxCell>
        <mxCell id="e6qoRinw3GRL_mTCKhxs-33" value="" style="endArrow=none;html=1;rounded=0;exitX=0.25;exitY=1;exitDx=0;exitDy=0;entryX=0.75;entryY=1;entryDx=0;entryDy=0;strokeWidth=2;strokeColor=#FF0000;" edge="1" source="e6qoRinw3GRL_mTCKhxs-31" target="e6qoRinw3GRL_mTCKhxs-31" parent="1">
          <mxGeometry width="50" height="50" relative="1" as="geometry">
            <mxPoint x="590" y="480" as="sourcePoint" />
            <mxPoint x="640" y="430" as="targetPoint" />
            <Array as="points">
              <mxPoint x="570" y="430" />
              <mxPoint x="610" y="430" />
            </Array>
          </mxGeometry>
        </mxCell>
        <mxCell id="e6qoRinw3GRL_mTCKhxs-34" value="" style="endArrow=none;html=1;rounded=0;entryX=0.25;entryY=1;entryDx=0;entryDy=0;exitX=0.5;exitY=0;exitDx=0;exitDy=0;strokeColor=#FF0000;" edge="1" parent="1" source="e6qoRinw3GRL_mTCKhxs-19" target="e6qoRinw3GRL_mTCKhxs-31">
          <mxGeometry width="50" height="50" relative="1" as="geometry">
            <mxPoint x="450" y="660" as="sourcePoint" />
            <mxPoint x="500" y="610" as="targetPoint" />
            <Array as="points">
              <mxPoint x="570" y="490" />
            </Array>
          </mxGeometry>
        </mxCell>
        <mxCell id="e6qoRinw3GRL_mTCKhxs-35" value="" style="endArrow=none;html=1;rounded=0;strokeColor=#FF0000;" edge="1" parent="1">
          <mxGeometry width="50" height="50" relative="1" as="geometry">
            <mxPoint x="40" y="480" as="sourcePoint" />
            <mxPoint x="220" y="480" as="targetPoint" />
          </mxGeometry>
        </mxCell>
        <mxCell id="e6qoRinw3GRL_mTCKhxs-37" value="" style="endArrow=none;html=1;rounded=0;entryX=0.75;entryY=1;entryDx=0;entryDy=0;strokeColor=#FF0000;" edge="1" parent="1" target="e6qoRinw3GRL_mTCKhxs-19">
          <mxGeometry width="50" height="50" relative="1" as="geometry">
            <mxPoint x="40" y="680" as="sourcePoint" />
            <mxPoint x="500" y="610" as="targetPoint" />
            <Array as="points">
              <mxPoint x="160" y="680" />
              <mxPoint x="160" y="510" />
            </Array>
          </mxGeometry>
        </mxCell>
        <mxCell id="e6qoRinw3GRL_mTCKhxs-38" value="" style="endArrow=none;html=1;rounded=0;entryX=0.75;entryY=1;entryDx=0;entryDy=0;strokeColor=#FF0000;" edge="1" parent="1" target="e6qoRinw3GRL_mTCKhxs-31">
          <mxGeometry width="50" height="50" relative="1" as="geometry">
            <mxPoint x="720" y="680" as="sourcePoint" />
            <mxPoint x="500" y="610" as="targetPoint" />
            <Array as="points">
              <mxPoint x="610" y="680" />
            </Array>
          </mxGeometry>
        </mxCell>
        <mxCell id="e6qoRinw3GRL_mTCKhxs-39" value="" style="endArrow=none;html=1;rounded=0;exitX=0.5;exitY=0;exitDx=0;exitDy=0;strokeColor=#FF0000;" edge="1" parent="1" source="e6qoRinw3GRL_mTCKhxs-31">
          <mxGeometry width="50" height="50" relative="1" as="geometry">
            <mxPoint x="450" y="660" as="sourcePoint" />
            <mxPoint x="720" y="480" as="targetPoint" />
            <Array as="points">
              <mxPoint x="590" y="370" />
              <mxPoint x="670" y="370" />
              <mxPoint x="670" y="480" />
            </Array>
          </mxGeometry>
        </mxCell>
        <mxCell id="e6qoRinw3GRL_mTCKhxs-40" value="" style="rounded=0;whiteSpace=wrap;html=1;direction=south;strokeWidth=2;strokeColor=#0000FF;" vertex="1" parent="1">
          <mxGeometry x="190" y="590" width="80" height="80" as="geometry" />
        </mxCell>
        <mxCell id="e6qoRinw3GRL_mTCKhxs-41" value="" style="endArrow=none;html=1;rounded=0;entryX=0.5;entryY=0;entryDx=0;entryDy=0;exitX=0.5;exitY=0;exitDx=0;exitDy=0;strokeWidth=2;strokeColor=#0000FF;" edge="1" source="e6qoRinw3GRL_mTCKhxs-40" parent="1">
          <mxGeometry width="50" height="50" relative="1" as="geometry">
            <mxPoint x="280" y="630" as="sourcePoint" />
            <mxPoint x="230" y="630" as="targetPoint" />
          </mxGeometry>
        </mxCell>
        <mxCell id="e6qoRinw3GRL_mTCKhxs-42" value="" style="endArrow=none;html=1;rounded=0;exitX=0.75;exitY=1;exitDx=0;exitDy=0;entryX=0.25;entryY=1;entryDx=0;entryDy=0;strokeWidth=2;strokeColor=#0000FF;" edge="1" source="e6qoRinw3GRL_mTCKhxs-40" target="e6qoRinw3GRL_mTCKhxs-40" parent="1">
          <mxGeometry width="50" height="50" relative="1" as="geometry">
            <mxPoint x="280" y="630" as="sourcePoint" />
            <mxPoint x="230" y="680" as="targetPoint" />
            <Array as="points">
              <mxPoint x="230" y="650" />
              <mxPoint x="230" y="610" />
            </Array>
          </mxGeometry>
        </mxCell>
        <mxCell id="e6qoRinw3GRL_mTCKhxs-43" value="" style="rounded=0;whiteSpace=wrap;html=1;strokeWidth=2;strokeColor=#0000FF;" vertex="1" parent="1">
          <mxGeometry x="490" y="520" width="80" height="80" as="geometry" />
        </mxCell>
        <mxCell id="e6qoRinw3GRL_mTCKhxs-44" value="" style="endArrow=none;html=1;rounded=0;entryX=0.5;entryY=0;entryDx=0;entryDy=0;strokeWidth=2;strokeColor=#0000FF;" edge="1" target="e6qoRinw3GRL_mTCKhxs-43" parent="1">
          <mxGeometry width="50" height="50" relative="1" as="geometry">
            <mxPoint x="530" y="560" as="sourcePoint" />
            <mxPoint x="580" y="560" as="targetPoint" />
          </mxGeometry>
        </mxCell>
        <mxCell id="e6qoRinw3GRL_mTCKhxs-45" value="" style="endArrow=none;html=1;rounded=0;exitX=0.25;exitY=1;exitDx=0;exitDy=0;entryX=0.75;entryY=1;entryDx=0;entryDy=0;strokeWidth=2;strokeColor=#0000FF;" edge="1" source="e6qoRinw3GRL_mTCKhxs-43" target="e6qoRinw3GRL_mTCKhxs-43" parent="1">
          <mxGeometry width="50" height="50" relative="1" as="geometry">
            <mxPoint x="530" y="610" as="sourcePoint" />
            <mxPoint x="580" y="560" as="targetPoint" />
            <Array as="points">
              <mxPoint x="510" y="560" />
              <mxPoint x="550" y="560" />
            </Array>
          </mxGeometry>
        </mxCell>
        <mxCell id="e6qoRinw3GRL_mTCKhxs-46" value="" style="endArrow=none;html=1;rounded=0;entryX=0.25;entryY=1;entryDx=0;entryDy=0;exitX=0.5;exitY=0;exitDx=0;exitDy=0;strokeColor=#0000FF;" edge="1" source="e6qoRinw3GRL_mTCKhxs-40" target="e6qoRinw3GRL_mTCKhxs-43" parent="1">
          <mxGeometry width="50" height="50" relative="1" as="geometry">
            <mxPoint x="390" y="790" as="sourcePoint" />
            <mxPoint x="440" y="740" as="targetPoint" />
            <Array as="points">
              <mxPoint x="510" y="630" />
            </Array>
          </mxGeometry>
        </mxCell>
        <mxCell id="e6qoRinw3GRL_mTCKhxs-47" value="" style="endArrow=none;html=1;rounded=0;strokeColor=#0000FF;" edge="1" parent="1">
          <mxGeometry width="50" height="50" relative="1" as="geometry">
            <mxPoint x="40" y="500" as="sourcePoint" />
            <mxPoint x="190" y="610" as="targetPoint" />
            <Array as="points">
              <mxPoint x="140" y="500" />
              <mxPoint x="140" y="610" />
            </Array>
          </mxGeometry>
        </mxCell>
        <mxCell id="e6qoRinw3GRL_mTCKhxs-48" value="" style="endArrow=none;html=1;rounded=0;entryX=0.75;entryY=1;entryDx=0;entryDy=0;strokeColor=#0000FF;" edge="1" target="e6qoRinw3GRL_mTCKhxs-40" parent="1">
          <mxGeometry width="50" height="50" relative="1" as="geometry">
            <mxPoint x="40" y="700" as="sourcePoint" />
            <mxPoint x="440" y="740" as="targetPoint" />
            <Array as="points">
              <mxPoint x="140" y="700" />
              <mxPoint x="140" y="650" />
            </Array>
          </mxGeometry>
        </mxCell>
        <mxCell id="e6qoRinw3GRL_mTCKhxs-49" value="" style="endArrow=none;html=1;rounded=0;entryX=0.75;entryY=1;entryDx=0;entryDy=0;strokeColor=#0000FF;" edge="1" target="e6qoRinw3GRL_mTCKhxs-43" parent="1">
          <mxGeometry width="50" height="50" relative="1" as="geometry">
            <mxPoint x="720" y="700" as="sourcePoint" />
            <mxPoint x="440" y="740" as="targetPoint" />
            <Array as="points">
              <mxPoint x="590" y="700" />
              <mxPoint x="590" y="630" />
              <mxPoint x="550" y="630" />
            </Array>
          </mxGeometry>
        </mxCell>
        <mxCell id="e6qoRinw3GRL_mTCKhxs-50" value="" style="endArrow=none;html=1;rounded=0;exitX=0.5;exitY=0;exitDx=0;exitDy=0;strokeColor=#0000FF;" edge="1" source="e6qoRinw3GRL_mTCKhxs-43" parent="1">
          <mxGeometry width="50" height="50" relative="1" as="geometry">
            <mxPoint x="390" y="790" as="sourcePoint" />
            <mxPoint x="720" y="500" as="targetPoint" />
            <Array as="points">
              <mxPoint x="530" y="500" />
            </Array>
          </mxGeometry>
        </mxCell>
        <mxCell id="e6qoRinw3GRL_mTCKhxs-51" value="" style="rounded=0;whiteSpace=wrap;html=1;direction=south;strokeWidth=2;strokeColor=#00FF00;" vertex="1" parent="1">
          <mxGeometry x="190" y="720" width="80" height="80" as="geometry" />
        </mxCell>
        <mxCell id="e6qoRinw3GRL_mTCKhxs-52" value="" style="endArrow=none;html=1;rounded=0;entryX=0.5;entryY=0;entryDx=0;entryDy=0;exitX=0.5;exitY=0;exitDx=0;exitDy=0;strokeWidth=2;strokeColor=#00FF00;" edge="1" source="e6qoRinw3GRL_mTCKhxs-51" parent="1">
          <mxGeometry width="50" height="50" relative="1" as="geometry">
            <mxPoint x="280" y="760" as="sourcePoint" />
            <mxPoint x="230" y="760" as="targetPoint" />
          </mxGeometry>
        </mxCell>
        <mxCell id="e6qoRinw3GRL_mTCKhxs-53" value="" style="endArrow=none;html=1;rounded=0;exitX=0.75;exitY=1;exitDx=0;exitDy=0;entryX=0.25;entryY=1;entryDx=0;entryDy=0;strokeWidth=2;strokeColor=#00FF00;" edge="1" source="e6qoRinw3GRL_mTCKhxs-51" target="e6qoRinw3GRL_mTCKhxs-51" parent="1">
          <mxGeometry width="50" height="50" relative="1" as="geometry">
            <mxPoint x="280" y="760" as="sourcePoint" />
            <mxPoint x="230" y="810" as="targetPoint" />
            <Array as="points">
              <mxPoint x="230" y="780" />
              <mxPoint x="230" y="740" />
            </Array>
          </mxGeometry>
        </mxCell>
        <mxCell id="e6qoRinw3GRL_mTCKhxs-54" value="" style="rounded=0;whiteSpace=wrap;html=1;strokeWidth=2;strokeColor=#00FF00;" vertex="1" parent="1">
          <mxGeometry x="490" y="650" width="80" height="80" as="geometry" />
        </mxCell>
        <mxCell id="e6qoRinw3GRL_mTCKhxs-55" value="" style="endArrow=none;html=1;rounded=0;entryX=0.5;entryY=0;entryDx=0;entryDy=0;strokeWidth=2;strokeColor=#00FF00;" edge="1" target="e6qoRinw3GRL_mTCKhxs-54" parent="1">
          <mxGeometry width="50" height="50" relative="1" as="geometry">
            <mxPoint x="530" y="690" as="sourcePoint" />
            <mxPoint x="580" y="690" as="targetPoint" />
          </mxGeometry>
        </mxCell>
        <mxCell id="e6qoRinw3GRL_mTCKhxs-56" value="" style="endArrow=none;html=1;rounded=0;exitX=0.25;exitY=1;exitDx=0;exitDy=0;entryX=0.75;entryY=1;entryDx=0;entryDy=0;strokeWidth=2;strokeColor=#00FF00;" edge="1" source="e6qoRinw3GRL_mTCKhxs-54" target="e6qoRinw3GRL_mTCKhxs-54" parent="1">
          <mxGeometry width="50" height="50" relative="1" as="geometry">
            <mxPoint x="530" y="740" as="sourcePoint" />
            <mxPoint x="580" y="690" as="targetPoint" />
            <Array as="points">
              <mxPoint x="510" y="690" />
              <mxPoint x="550" y="690" />
            </Array>
          </mxGeometry>
        </mxCell>
        <mxCell id="e6qoRinw3GRL_mTCKhxs-57" value="" style="endArrow=none;html=1;rounded=0;entryX=0.25;entryY=1;entryDx=0;entryDy=0;exitX=0.5;exitY=0;exitDx=0;exitDy=0;strokeColor=#00FF00;" edge="1" source="e6qoRinw3GRL_mTCKhxs-51" target="e6qoRinw3GRL_mTCKhxs-54" parent="1">
          <mxGeometry width="50" height="50" relative="1" as="geometry">
            <mxPoint x="390" y="920" as="sourcePoint" />
            <mxPoint x="440" y="870" as="targetPoint" />
            <Array as="points">
              <mxPoint x="510" y="760" />
            </Array>
          </mxGeometry>
        </mxCell>
        <mxCell id="e6qoRinw3GRL_mTCKhxs-58" value="" style="endArrow=none;html=1;rounded=0;strokeColor=#00FF00;" edge="1" parent="1">
          <mxGeometry width="50" height="50" relative="1" as="geometry">
            <mxPoint x="40" y="520" as="sourcePoint" />
            <mxPoint x="190" y="740" as="targetPoint" />
            <Array as="points">
              <mxPoint x="120" y="520" />
              <mxPoint x="120" y="740" />
            </Array>
          </mxGeometry>
        </mxCell>
        <mxCell id="e6qoRinw3GRL_mTCKhxs-59" value="" style="endArrow=none;html=1;rounded=0;entryX=0.75;entryY=1;entryDx=0;entryDy=0;strokeColor=#00FF00;" edge="1" target="e6qoRinw3GRL_mTCKhxs-51" parent="1">
          <mxGeometry width="50" height="50" relative="1" as="geometry">
            <mxPoint x="40" y="720" as="sourcePoint" />
            <mxPoint x="440" y="870" as="targetPoint" />
            <Array as="points">
              <mxPoint x="80" y="720" />
              <mxPoint x="80" y="780" />
            </Array>
          </mxGeometry>
        </mxCell>
        <mxCell id="e6qoRinw3GRL_mTCKhxs-60" value="" style="endArrow=none;html=1;rounded=0;entryX=0.75;entryY=1;entryDx=0;entryDy=0;strokeColor=#00FF00;" edge="1" target="e6qoRinw3GRL_mTCKhxs-54" parent="1">
          <mxGeometry width="50" height="50" relative="1" as="geometry">
            <mxPoint x="720" y="720" as="sourcePoint" />
            <mxPoint x="440" y="870" as="targetPoint" />
            <Array as="points">
              <mxPoint x="650" y="720" />
              <mxPoint x="650" y="760" />
              <mxPoint x="550" y="760" />
            </Array>
          </mxGeometry>
        </mxCell>
        <mxCell id="e6qoRinw3GRL_mTCKhxs-61" value="" style="endArrow=none;html=1;rounded=0;exitX=0.5;exitY=0;exitDx=0;exitDy=0;strokeColor=#00FF00;" edge="1" source="e6qoRinw3GRL_mTCKhxs-54" parent="1">
          <mxGeometry width="50" height="50" relative="1" as="geometry">
            <mxPoint x="390" y="920" as="sourcePoint" />
            <mxPoint x="720" y="520" as="targetPoint" />
            <Array as="points">
              <mxPoint x="530" y="620" />
              <mxPoint x="650" y="620" />
              <mxPoint x="650" y="520" />
            </Array>
          </mxGeometry>
        </mxCell>
        <mxCell id="e6qoRinw3GRL_mTCKhxs-62" value="" style="rounded=0;whiteSpace=wrap;html=1;direction=south;strokeWidth=2;" vertex="1" parent="1">
          <mxGeometry x="230" y="850" width="80" height="80" as="geometry" />
        </mxCell>
        <mxCell id="e6qoRinw3GRL_mTCKhxs-63" value="" style="endArrow=none;html=1;rounded=0;entryX=0.5;entryY=0;entryDx=0;entryDy=0;exitX=0.5;exitY=0;exitDx=0;exitDy=0;strokeWidth=2;" edge="1" source="e6qoRinw3GRL_mTCKhxs-62" parent="1">
          <mxGeometry width="50" height="50" relative="1" as="geometry">
            <mxPoint x="320" y="890" as="sourcePoint" />
            <mxPoint x="270" y="890" as="targetPoint" />
          </mxGeometry>
        </mxCell>
        <mxCell id="e6qoRinw3GRL_mTCKhxs-64" value="" style="endArrow=none;html=1;rounded=0;exitX=0.75;exitY=1;exitDx=0;exitDy=0;entryX=0.25;entryY=1;entryDx=0;entryDy=0;strokeWidth=2;" edge="1" source="e6qoRinw3GRL_mTCKhxs-62" target="e6qoRinw3GRL_mTCKhxs-62" parent="1">
          <mxGeometry width="50" height="50" relative="1" as="geometry">
            <mxPoint x="320" y="890" as="sourcePoint" />
            <mxPoint x="270" y="940" as="targetPoint" />
            <Array as="points">
              <mxPoint x="270" y="910" />
              <mxPoint x="270" y="870" />
            </Array>
          </mxGeometry>
        </mxCell>
        <mxCell id="e6qoRinw3GRL_mTCKhxs-65" value="" style="rounded=0;whiteSpace=wrap;html=1;strokeWidth=2;" vertex="1" parent="1">
          <mxGeometry x="560" y="780" width="80" height="80" as="geometry" />
        </mxCell>
        <mxCell id="e6qoRinw3GRL_mTCKhxs-66" value="" style="endArrow=none;html=1;rounded=0;entryX=0.5;entryY=0;entryDx=0;entryDy=0;strokeWidth=2;" edge="1" target="e6qoRinw3GRL_mTCKhxs-65" parent="1">
          <mxGeometry width="50" height="50" relative="1" as="geometry">
            <mxPoint x="600" y="820" as="sourcePoint" />
            <mxPoint x="650" y="810" as="targetPoint" />
          </mxGeometry>
        </mxCell>
        <mxCell id="e6qoRinw3GRL_mTCKhxs-67" value="" style="endArrow=none;html=1;rounded=0;exitX=0.25;exitY=1;exitDx=0;exitDy=0;entryX=0.75;entryY=1;entryDx=0;entryDy=0;strokeWidth=2;" edge="1" source="e6qoRinw3GRL_mTCKhxs-65" target="e6qoRinw3GRL_mTCKhxs-65" parent="1">
          <mxGeometry width="50" height="50" relative="1" as="geometry">
            <mxPoint x="600" y="870" as="sourcePoint" />
            <mxPoint x="650" y="820" as="targetPoint" />
            <Array as="points">
              <mxPoint x="580" y="820" />
              <mxPoint x="620" y="820" />
            </Array>
          </mxGeometry>
        </mxCell>
        <mxCell id="e6qoRinw3GRL_mTCKhxs-68" value="" style="endArrow=none;html=1;rounded=0;entryX=0.25;entryY=1;entryDx=0;entryDy=0;exitX=0.5;exitY=0;exitDx=0;exitDy=0;" edge="1" source="e6qoRinw3GRL_mTCKhxs-62" target="e6qoRinw3GRL_mTCKhxs-65" parent="1">
          <mxGeometry width="50" height="50" relative="1" as="geometry">
            <mxPoint x="460" y="1050" as="sourcePoint" />
            <mxPoint x="510" y="1000" as="targetPoint" />
            <Array as="points">
              <mxPoint x="580" y="890" />
            </Array>
          </mxGeometry>
        </mxCell>
        <mxCell id="e6qoRinw3GRL_mTCKhxs-69" value="" style="endArrow=none;html=1;rounded=0;" edge="1" parent="1">
          <mxGeometry width="50" height="50" relative="1" as="geometry">
            <mxPoint x="40" y="540" as="sourcePoint" />
            <mxPoint x="230" y="870" as="targetPoint" />
            <Array as="points">
              <mxPoint x="100" y="540" />
              <mxPoint x="100" y="870" />
            </Array>
          </mxGeometry>
        </mxCell>
        <mxCell id="e6qoRinw3GRL_mTCKhxs-70" value="" style="endArrow=none;html=1;rounded=0;entryX=0.75;entryY=1;entryDx=0;entryDy=0;" edge="1" target="e6qoRinw3GRL_mTCKhxs-62" parent="1">
          <mxGeometry width="50" height="50" relative="1" as="geometry">
            <mxPoint x="40" y="740" as="sourcePoint" />
            <mxPoint x="510" y="1000" as="targetPoint" />
            <Array as="points">
              <mxPoint x="60" y="740" />
              <mxPoint x="60" y="910" />
              <mxPoint x="210" y="910" />
            </Array>
          </mxGeometry>
        </mxCell>
        <mxCell id="e6qoRinw3GRL_mTCKhxs-71" value="" style="endArrow=none;html=1;rounded=0;entryX=0.75;entryY=1;entryDx=0;entryDy=0;" edge="1" target="e6qoRinw3GRL_mTCKhxs-65" parent="1">
          <mxGeometry width="50" height="50" relative="1" as="geometry">
            <mxPoint x="720" y="740" as="sourcePoint" />
            <mxPoint x="510" y="1000" as="targetPoint" />
            <Array as="points">
              <mxPoint x="670" y="740" />
              <mxPoint x="670" y="890" />
              <mxPoint x="620" y="890" />
            </Array>
          </mxGeometry>
        </mxCell>
        <mxCell id="e6qoRinw3GRL_mTCKhxs-72" value="" style="endArrow=none;html=1;rounded=0;exitX=0.5;exitY=0;exitDx=0;exitDy=0;" edge="1" source="e6qoRinw3GRL_mTCKhxs-65" parent="1">
          <mxGeometry width="50" height="50" relative="1" as="geometry">
            <mxPoint x="460" y="1050" as="sourcePoint" />
            <mxPoint x="720" y="540" as="targetPoint" />
            <Array as="points">
              <mxPoint x="600" y="740" />
              <mxPoint x="600" y="540" />
            </Array>
          </mxGeometry>
        </mxCell>
        <mxCell id="e6qoRinw3GRL_mTCKhxs-73" value="&lt;font style=&quot;font-size: 16px;&quot;&gt;IF Input&lt;/font&gt;" style="text;html=1;align=center;verticalAlign=middle;resizable=0;points=[];autosize=1;strokeColor=none;fillColor=none;rotation=90;" vertex="1" parent="1">
          <mxGeometry x="700" y="490" width="80" height="30" as="geometry" />
        </mxCell>
        <mxCell id="e6qoRinw3GRL_mTCKhxs-74" value="&lt;font style=&quot;font-size: 16px;&quot;&gt;3dB Output-1&lt;/font&gt;" style="text;html=1;align=center;verticalAlign=middle;resizable=0;points=[];autosize=1;strokeColor=none;fillColor=none;rotation=90;" vertex="1" parent="1">
          <mxGeometry x="680" y="690" width="120" height="30" as="geometry" />
        </mxCell>
        <mxCell id="e6qoRinw3GRL_mTCKhxs-75" value="&lt;font style=&quot;font-size: 17px;&quot;&gt;6dB Output-2&lt;/font&gt;" style="text;html=1;align=center;verticalAlign=middle;resizable=0;points=[];autosize=1;strokeColor=none;fillColor=none;rotation=270;" vertex="1" parent="1">
          <mxGeometry x="-40" y="500" width="120" height="30" as="geometry" />
        </mxCell>
        <mxCell id="e6qoRinw3GRL_mTCKhxs-77" value="&lt;font style=&quot;font-size: 17px;&quot;&gt;6dB Output-3&lt;/font&gt;" style="text;html=1;align=center;verticalAlign=middle;resizable=0;points=[];autosize=1;strokeColor=none;fillColor=none;rotation=270;" vertex="1" parent="1">
          <mxGeometry x="-40" y="700" width="120" height="30" as="geometry" />
        </mxCell>
      </root>
    </mxGraphModel>
  </diagram>
</mxfile>
